<svg width="175" height="49" fill="none" xmlns="http://www.w3.org/2000/svg"><path d="M34.837 13.32h6.183v4.269a8.902 8.902 0 0 1 1.43-1.83 9.978 9.978 0 0 1 1.993-1.525 12.67 12.67 0 0 1 2.504-1.067 9.553 9.553 0 0 1 2.81-.407c1.67 0 3.22.305 4.65.915a10.581 10.581 0 0 1 3.781 2.643c1.056 1.152 1.89 2.575 2.504 4.27.613 1.66.92 3.558.92 5.692v.407c0 2.135-.307 4.05-.92 5.743-.58 1.695-1.397 3.135-2.453 4.32a10.356 10.356 0 0 1-3.73 2.745c-1.43.61-3.015.915-4.752.915-2.146 0-3.968-.457-5.467-1.372-1.465-.915-2.555-2.016-3.27-3.304V49h-6.183V13.32Zm13.387 22.21c2.283 0 4.02-.728 5.212-2.185 1.226-1.49 1.84-3.676 1.84-6.556v-.407c0-1.457-.188-2.728-.563-3.812-.34-1.118-.834-2.05-1.481-2.796-.648-.745-1.397-1.287-2.249-1.626-.851-.373-1.788-.56-2.81-.56-2.146 0-3.917.73-5.314 2.186-1.363 1.424-2.044 3.626-2.044 6.608v.407c0 2.981.665 5.184 1.993 6.607 1.362 1.423 3.168 2.135 5.416 2.135Zm19.3-22.21h6.183v26.582h-6.183V13.319Zm3.015-4.372c-1.022 0-1.89-.339-2.606-1.016-.715-.678-1.073-1.508-1.073-2.49 0-1.017.358-1.864 1.073-2.542.715-.678 1.584-1.017 2.606-1.017 1.022 0 1.89.34 2.606 1.017.715.678 1.073 1.525 1.073 2.541 0 .983-.358 1.813-1.073 2.49-.715.678-1.584 1.017-2.606 1.017Z" fill="#00B268"/><path d="M79.222 1.02h6.183v38.882h-6.183V1.019Zm25.671 39.39c-1.976 0-3.798-.305-5.468-.915a13.332 13.332 0 0 1-4.292-2.694c-1.192-1.185-2.129-2.609-2.81-4.269-.647-1.66-.97-3.54-.97-5.642v-.406c0-2.067.323-3.931.97-5.591.681-1.695 1.618-3.135 2.81-4.32a12.111 12.111 0 0 1 4.19-2.796c1.635-.678 3.407-1.017 5.314-1.017 1.67 0 3.254.255 4.752.763a10.808 10.808 0 0 1 4.037 2.389c1.158 1.084 2.078 2.473 2.759 4.167.716 1.695 1.073 3.728 1.073 6.1v1.779h-19.57c.102 2.541.767 4.49 1.993 5.845 1.26 1.355 3.049 2.033 5.365 2.033 1.874 0 3.304-.356 4.292-1.067.988-.712 1.601-1.712 1.84-3h5.978c-.443 2.813-1.737 4.965-3.883 6.456-2.146 1.457-4.94 2.185-8.38 2.185Zm6.234-16.57c-.171-2.303-.818-3.98-1.942-5.031-1.09-1.05-2.606-1.576-4.548-1.576-1.873 0-3.406.593-4.598 1.78-1.193 1.151-1.942 2.76-2.249 4.828h13.337Zm11.853-10.52h6.183v4.218c.647-1.288 1.686-2.406 3.117-3.354 1.465-.95 3.304-1.424 5.518-1.424 1.329 0 2.555.204 3.679.61a7.576 7.576 0 0 1 2.913 1.88c.817.814 1.447 1.881 1.89 3.203.443 1.322.664 2.897.664 4.727v16.722h-6.182V23.739c0-2.033-.426-3.507-1.278-4.422-.851-.949-2.197-1.423-4.036-1.423-1.738 0-3.219.542-4.446 1.626-1.226 1.05-1.839 2.626-1.839 4.727v15.655h-6.183V13.319Zm40.383 27.09c-3.475 0-6.183-.745-8.124-2.236-1.908-1.525-2.93-3.71-3.066-6.557h5.825c.17 1.356.63 2.406 1.379 3.152.784.745 2.095 1.118 3.935 1.118 1.669 0 2.878-.288 3.628-.864.783-.576 1.175-1.424 1.175-2.542 0-1.084-.46-1.88-1.38-2.389-.919-.508-2.367-.931-4.343-1.27-1.771-.271-3.27-.61-4.496-1.017-1.227-.407-2.232-.932-3.015-1.575a5.695 5.695 0 0 1-1.635-2.288c-.341-.88-.511-1.948-.511-3.202 0-1.321.289-2.473.869-3.456a7.554 7.554 0 0 1 2.248-2.49 10.438 10.438 0 0 1 3.219-1.525 13.39 13.39 0 0 1 3.679-.509c1.362 0 2.64.136 3.832.407 1.226.271 2.299.729 3.219 1.372.92.61 1.669 1.44 2.248 2.49.613 1.017 1.005 2.271 1.176 3.762h-5.723c-.273-1.22-.784-2.118-1.533-2.694-.715-.576-1.789-.864-3.219-.864-1.329 0-2.368.288-3.117.864-.749.576-1.124 1.339-1.124 2.287 0 .475.085.898.255 1.271.171.339.46.644.869.915.443.237 1.022.457 1.737.66.716.204 1.601.39 2.657.56 1.567.237 2.964.542 4.19.915 1.26.339 2.316.813 3.168 1.423a5.53 5.53 0 0 1 1.942 2.287c.477.915.715 2.084.715 3.507 0 2.71-.92 4.812-2.759 6.303-1.84 1.457-4.48 2.185-7.92 2.185Z" fill="#002A3F"/><path d="m15.907 34.282 3.522-3.524 5.366 9.076h7.42v-.148l-9.31-13.666 9.04-9.819H24.04l-8.134 8.9" fill="#00B268"/><path d="m15.907 34.282 3.522-3.524 5.366 9.076h7.42v-.148l-9.31-13.666 9.04-9.819H24.04l-8.134 8.9" stroke="#00B268" stroke-width=".1"/><path d="M9 22.89h6v-.49H9v.49Zm0 .69h6v-.49H9v.49Zm0 .69h6v-.49H9v.49Zm0 4.75h6v-.491H9v.49Zm0-4.06h6v-.49H9v.49Zm0 .69h6v-.49H9v.49Zm0 4.05h6v-.49H9v.49Zm0 .69h6v-.49H9v.49Zm0 .69h6v-.49H9v.49Zm0-4.104h6v-.49H9v.49Zm0-.672h4.168v-.49H9v.49Zm0 1.353h4.168v-.49H9v.49Zm.934.681h4.168v-.49H9.934v.49ZM9 31.77h6v-.49H9v.49Zm0 4.75h6v-.491H9v.49Zm0-4.06h6v-.49H9v.49Zm0 .69h6v-.49H9v.49Zm0 4.05h6v-.49H9v.49Zm0 .69h6v-.49H9v.49Zm0 .69h6v-.49H9v.49Zm0 .816h6v-.49H9v.49Zm0 .527h6v-.327H9v.327Zm0-5.447h6v-.49H9v.49Zm0-.672h4.168v-.49H9v.49Zm0 1.353h4.168v-.49H9v.49Zm.934.681h4.168v-.49H9.934v.49ZM11.5 1 1 10.81l3.757 3.32L9 10.81V22h6V10.81l4.24 3.32L23 10.81 11.5 1Z" fill="#00B268" stroke="#00B268" stroke-width=".1"/></svg>